PathFileType	4	(X/Y/Z)	Walk2.trc
DataRate	CameraRate	NumFrames	NumMarkers	Units	OrigDataRate	OrigDataStartFrame	OrigNumFrames
200.000000	200.000000	5	56	mm	200.000000	346	568
Frame#	Times		RASI		RACR1		RUA1		RFA1		RTH2		C7		LFA1		RTH3		RElbow		LElbowM		RCAR		RTH4		RLFC		RTB3		RMT1		RTB1		RWRU		RMT5		LACR1		RTH1		RTB4		RTB2		LTH3		LElbow		RMMAL		LWRU		RWRR		LPSI		CLAV		LTB1		T10		LBHD		RPSI		LTB4		LTB3		LLFC		LTH2		LTH4		LTB2		RBHD		LWRR		LTH1		LFHD		LMT1		RBack		LMMAL		LCAL		LLMAL		RLMAL		RToe		LMT5		RElbowM		LToe		LUA1		LCAR		RCAL
			X1	Y1	Z1	X2	Y2	Z2	X3	Y3	Z3	X4	Y4	Z4	X5	Y5	Z5	X6	Y6	Z6	X7	Y7	Z7	X8	Y8	Z8	X9	Y9	Z9	X10	Y10	Z10	X11	Y11	Z11	X12	Y12	Z12	X13	Y13	Z13	X14	Y14	Z14	X15	Y15	Z15	X16	Y16	Z16	X17	Y17	Z17	X18	Y18	Z18	X19	Y19	Z19	X20	Y20	Z20	X21	Y21	Z21	X22	Y22	Z22	X23	Y23	Z23	X24	Y24	Z24	X25	Y25	Z25	X26	Y26	Z26	X27	Y27	Z27	X28	Y28	Z28	X29	Y29	Z29	X30	Y30	Z30	X31	Y31	Z31	X32	Y32	Z32	X33	Y33	Z33	X34	Y34	Z34	X35	Y35	Z35	X36	Y36	Z36	X37	Y37	Z37	X38	Y38	Z38	X39	Y39	Z39	X40	Y40	Z40	X41	Y41	Z41	X42	Y42	Z42	X43	Y43	Z43	X44	Y44	Z44	X45	Y45	Z45	X46	Y46	Z46	X47	Y47	Z47	X48	Y48	Z48	X49	Y49	Z49	X50	Y50	Z50	X51	Y51	Z51	X52	Y52	Z52	X53	Y53	Z53	X54	Y54	Z54	X55	Y55	Z55	X56	Y56	Z56

346	1.73	-21.006	948.88	430.59	-27.264	1401.4	439.52	-43.533	1219	535.53	52.196	983.97	588.54	-34.537	651.21	424.93	-98.82	1448	299.03	-110.99	996.63	-28.32	-111.92	558.94	437.81	-57.921	1090.9	580.73	-209.28	1125.4	96.018	179.24	853.24	571.03	-100.41	649.67	456.92	-128.12	454.71	417.49	-161.83	177.34	319.42	-90.602	37.556	274.14	-114.07	361.29	330.83	112.5	871.24	571.38	-118.98	32.151	363.89	-73.465	1437.1	120.41	-90.903	744.4	469.29	-135.21	270.96	326.87	-145.08	266.41	399.42	81.164	593.94	103.39	-197.39	1128.1	16.68	-214.35	98.135	269.62	-120.15	877.49	-21.888	166.03	912.95	532.59	-189.98	967.3	214.11	33.159	1364.6	275.28	165.2	400.49	175.47	-199.21	1140.1	274.58	-67.534	1586.2	229.51	-197.27	973.14	318.41	152.29	308.43	182.55	141.98	216.53	189.23	113.86	487.87	120.64	99.697	708.12	115.58	37.133	671.24	86.966	115.81	307.98	119.87	-63.217	1583.7	367.53	-44.473	898.65	2.9404	-9.0521	757.63	82.964	116.23	1605.8	247.2	232.25	60.806	226.47	-166.99	1352.8	398.81	109.88	113.09	251.75	30.063	48.6	223.52	68.661	93.747	171.5	-237.88	82.91	357.26	-35.933	29.237	296.86	200.47	54.166	150.65	-79.074	1051	491.66	269	73.909	202.48	-147.7	1251.4	28.584	-45.885	845.68	-45.167	-293.91	38.447	315.86
347	1.735	-14.777	947.96	430.48	-20.822	1400.6	439.32	-36.643	1218.7	535.76	61.635	985.31	588.76	-29.884	649.9	424.75	-92.216	1447	298.76	-106.37	994.94	-28.382	-107.9	558.37	437.77	-49.944	1090.7	581.51	-203.15	1124.2	96.219	190.56	856.52	571.08	-95.635	648.89	457.01	-125.42	454.4	417.35	-160.98	176.99	319.59	-90.394	37.485	274.06	-111.61	360.83	330.66	123.96	873.82	571.52	-118.96	32.14	363.84	-67.1	1435.9	120.24	-85.819	743.65	469.25	-133.87	270.45	326.97	-143.5	266.07	399.29	87.517	592.84	103.69	-191.62	1127	17.431	-213.98	98.224	269.63	-116.42	875.8	-21.613	176.54	916.21	532.54	-183.47	966.17	213.88	39.857	1363.6	275.06	173.33	400.91	175.45	-192.8	1139.2	274.61	-61.363	1584.8	229.06	-190.83	972.4	318.03	163.97	308.64	182.56	157.68	216.26	189.15	119.62	486.46	120.93	106.03	707	116.03	43.855	670.21	86.9	127.56	306.69	120	-56.868	1582.9	367.17	-40.578	896.24	2.2667	-3.0723	756.55	82.758	122.74	1604.9	246.37	254.08	63.057	226.75	-160.38	1351.9	398.58	129.81	111.35	251.68	52.122	44.75	223.87	88.998	90.609	171.51	-237.48	83.151	357.32	-35.381	28.336	296.4	222.54	54.68	151.02	-70.446	1050.3	492.37	290.54	76.74	202.63	-141.47	1250.2	28.777	-42.577	843.62	-45.766	-293.85	38.723	315.83
348	1.74	-8.4729	946.95	430.49	-14.268	1400	439.04	-29.589	1218.3	536.12	71.319	986.55	589.29	-25.413	648.83	424.6	-85.597	1445.8	298.69	-102.01	993.11	-28.521	-104.13	557.9	437.82	-41.837	1090.4	582.28	-196.99	1123.2	96.876	201.95	860.24	570.81	-91.218	648.35	456.94	-122.63	454.07	417.54	-160.27	176.59	319.69	-90.268	37.419	273.96	-109.4	360.18	330.29	135.24	876.03	571.58	-118.85	32.049	363.77	-60.583	1434.8	120	-80.5	743.04	469.12	-131.97	269.94	326.98	-141.56	265.63	398.91	93.707	591.76	104.15	-185.35	1125.9	18.043	-213.66	98.355	269.61	-112.39	874.28	-21.525	187	919.85	532.59	-176.55	965.02	213.59	46.476	1362.6	275.04	181.54	401.5	175.42	-186.36	1138.1	274.34	-54.984	1583.6	228.18	-184.41	971.4	317.73	175.44	308.69	182.73	173.08	216.15	189	125.3	484.82	121.43	112.54	705.75	116.57	50.265	669.13	86.684	138.98	305.33	120.03	-50.485	1582	366.69	-36.528	893.95	1.5923	3.5153	755.66	82.616	129.1	1604.1	245.68	275.69	65.699	227.13	-153.76	1351.2	398.25	149.67	110.05	251.67	73.991	41.572	224.13	109.12	88.013	171.73	-237.27	83.524	357.18	-34.887	27.847	295.93	244.1	55.736	151.38	-61.575	1049.4	493.19	312.05	79.722	202.68	-135.04	1248.9	28.935	-39.288	840.87	-46.112	-293.7	38.974	315.87
349	1.745	-2.1623	946.08	430.41	-7.5874	1399.1	438.73	-22.313	1217.8	536.29	80.904	988	589.54	-20.627	647.7	424.31	-79.11	1444.8	298.42	-97.288	991.41	-28.668	-100.35	557.26	437.83	-33.849	1090	583	-190.56	1122.2	97.299	213.21	863.67	570.83	-86.343	647.9	456.85	-119.64	453.58	417.5	-159.46	176.56	319.47	-90.182	37.33	273.92	-107.09	359.56	330.24	146.28	878.3	571.53	-118.81	32.129	363.71	-54.054	1433.6	119.68	-74.765	742.36	469.11	-130.4	269.42	326.6	-140.19	265.11	398.95	99.647	590.54	104.34	-179.06	1124.8	18.238	-213.28	98.544	269.58	-108.75	872.43	-21.44	197.17	922.9	532.64	-169.84	963.75	213.05	53.087	1361.5	274.79	189.03	401.74	175.55	-179.74	1137.1	273.69	-48.336	1582.4	227.49	-177.9	970.35	317.3	186.95	308.8	182.91	188.29	216.27	188.81	130.5	482.94	121.86	118.63	704.38	117.15	56.534	668.09	86.593	150.41	304.15	120.1	-43.988	1580.9	366.07	-32.506	891.5	0.96024	10.127	754.98	82.403	135.36	1603.3	244.9	296.79	68.538	227.44	-147.14	1350.4	398.37	168.78	109.38	251.62	95.535	38.852	224.21	129.34	85.987	171.76	-236.83	83.917	357.06	-34.631	27.525	295.78	265.38	57.048	151.5	-52.878	1048.7	494.01	332.93	82.935	203.01	-128.62	1247.6	29.093	-36.294	838.29	-46.499	-293.6	39.342	315.91
350	1.75	4.2067	945.13	430.42	-0.8348	1398.4	438.57	-15.279	1217.3	536.52	90.155	989.22	589.74	-16.114	646.57	424.34	-72.531	1443.9	298.3	-92.459	989.6	-28.951	-96.374	556.63	437.76	-26.029	1089.8	583.56	-184.13	1121.1	97.987	224.25	867	570.82	-81.642	647.19	456.82	-116.52	453.1	417.31	-158.52	176.62	318.97	-90.079	37.326	273.9	-104.71	358.83	330.32	157.03	880.63	571.77	-118.76	32.095	363.54	-47.225	1432.3	119.38	-69.509	741.69	469.04	-128.64	269.04	326.45	-138.4	264.85	398.96	105.29	588.95	104.52	-173.13	1123.6	18.595	-212.86	98.884	269.48	-105.27	870.6	-21.749	207.31	925.85	532.6	-163.04	962.89	212.48	59.982	1360.5	274.37	196.59	402.2	175.41	-172.95	1136.2	273.36	-42.108	1581	227.25	-171.49	969.3	316.61	198.02	309.13	182.55	203.15	216.86	188.37	135.51	481.01	122.38	124.67	702.87	117.66	62.623	666.92	86.541	161.58	303.33	120.19	-37.372	1580.1	365.29	-28.598	889.31	0.29207	16.902	753.76	82.252	142.1	1602.4	244.21	317.66	71.723	227.8	-140.58	1349.5	398.08	187.94	109.66	251.97	116.83	36.633	224.33	148.86	84.214	171.89	-236.29	84.228	357.03	-34.422	27.262	295.77	286.31	58.389	151.7	-44.788	1047.9	494.81	353.43	86.321	203.24	-122.13	1246.2	29.271	-33.213	836.04	-47.18	-293.57	39.768	315.92
